Plot:
Colombiana (2011)
PG_13  108 min  -  Action | Crime | Drama   -  26 August 2011 (USA)
5.9

A young woman, after witnessing her parents\\\\\\\\\\\\\\\\\\\\\\\\\\\\\\\' murder as a child in Bogota, grows up to be a stone-cold assassin.

Director: Olivier Megaton
Writers: Luc Besson (screenplay), Robert Mark Kamen (screenplay)
Stars: Zoe Saldana, Michael Vartan and Callum Blue 

Cast:
Zoe Saldana ... Cataleya
Jordi Mollà ... Marco
Lennie James ... Ross
Amandla Stenberg ... Cat - 10
Michael Vartan ... Danny Delanay
Cliff Curtis ... Emilio Restrepo
Beto Benites ... Don Luis
Jesse Borrego ... Fabio
Cynthia Addai-Robinson ... Alicia
Angel Garnica ... Pepe
Ofelia Medina ... Mama
Callum Blue ... Richard
Sam Douglas ... William Woogard
Graham McTavish ... Head Marshall Warren
Charles Maquignon ... Sergeant Bill Attwood

Info:
Colombiana 2011 - HD Rip Quality
 
http://www.imdb.com/title/tt1657507

General
Format: AVI
Format/Info: Audio Video Interleave
File size: 1.00 GiB
Duration: 1h 47mn
Overall bit rate: 1 332 Kbps
Writing application: VirtualDubMod 1.5.10.2 (build 2540/release)
Writing library: VirtualDubMod build 2540/release

Video
ID: 0
Format: MPEG-4 Visual
Format profile: Advanced Simple@L5
Format settings, BVOP: 2
Format settings, QPel: No
Format settings, GMC: No warppoints
Format settings, Matrix: Default (H.263)
Muxing mode: Packed bitstream
Codec ID: XVID
Codec ID/Hint: XviD
Duration: 1h 47mn
Bit rate: 1 130 Kbps
Width: 672 pixels
Height: 256 pixels
Display aspect ratio: 2.625
Frame rate: 23.976 fps
Color space: YUV
Chroma subsampling: 4:2:0
Bit depth: 8 bits
Scan type: Progressive
Compression mode: Lossy
Bits/(Pixel*Frame): 0.274
Stream size: 872 MiB (85%)
Writing library: XviD 64

Audio
ID: 1
Format: AC-3
Format/Info: Audio Coding 3
Mode extension: CM (complete main)
Codec ID: 2000
Duration: 1h 47mn
Bit rate mode: Constant
Bit rate: 192 Kbps
Channel(s): 2 channels
Channel positions: Front: L R
Sampling rate: 48.0 KHz
Bit depth: 16 bits
Compression mode: Lossy
Stream size: 148 MiB (14%)
Alignment: Split accross interleaves
Interleave, duration: 42 ms (1.00 video frame)
Interleave, preload duration: 500 ms